HIERARCHY
ROOT Hips
{
	OFFSET 0.000000 0.000000 0.000000
	CHANNELS 6 Xposition Yposition Zposition Xrotation Yrotation Zrotation
	JOINT LeftUpLeg_virtual
	{
		OFFSET 0.000000 0.000000 0.000000
		CHANNELS 3 Xrotation Yrotation Zrotation
		JOINT LeftUpLeg
		{
			OFFSET 15.427100 -6.655098 0.678600
			CHANNELS 3 Xrotation Yrotation Zrotation
			JOINT LeftLeg
			{
				OFFSET 4.081073 -39.591068 13.024000
				CHANNELS 3 Xrotation Yrotation Zrotation
				JOINT LeftFoot
				{
					OFFSET -4.081074 -37.707932 -15.979700
					CHANNELS 3 Xrotation Yrotation Zrotation
					JOINT LeftToeBase
					{
						OFFSET 5.346399 -15.068900 20.645000
						CHANNELS 3 Xrotation Yrotation Zrotation
						JOINT LeftToe_End
						{
							OFFSET 2.754700 0.931300 11.300900
							CHANNELS 3 Xrotation Yrotation Zrotation
							End Site
							{
								OFFSET 0 0 0
							}
						}
					}
				}
			}
		}
	}
	JOINT RightUpLeg_virtual
	{
		OFFSET 0.000000 0.000000 0.000000
		CHANNELS 3 Xrotation Yrotation Zrotation
		JOINT RightUpLeg
		{
			OFFSET -15.569500 -6.655098 0.678600
			CHANNELS 3 Xrotation Yrotation Zrotation
			JOINT RightLeg
			{
				OFFSET -4.081825 -39.591045 13.023800
				CHANNELS 3 Xrotation Yrotation Zrotation
				JOINT RightFoot
				{
					OFFSET 4.081824 -37.707954 -15.979600
					CHANNELS 3 Xrotation Yrotation Zrotation
					JOINT RightToeBase
					{
						OFFSET -5.346400 -15.068900 20.645000
						CHANNELS 3 Xrotation Yrotation Zrotation
						JOINT RightToe_End
						{
							OFFSET -2.754700 0.931300 11.300900
							CHANNELS 3 Xrotation Yrotation Zrotation
							End Site
							{
								OFFSET 0 0 0
							}
						}
					}
				}
			}
		}
	}
	JOINT Spine_virtual
	{
		OFFSET 0.000000 0.000000 0.000000
		CHANNELS 3 Xrotation Yrotation Zrotation
		JOINT Spine
		{
			OFFSET -0.279200 12.230698 -2.892100
			CHANNELS 3 Xrotation Yrotation Zrotation
			JOINT Spine1
			{
				OFFSET -0.232667 10.192268 -1.242267
				CHANNELS 3 Xrotation Yrotation Zrotation
				JOINT Spine1_split
				{
					OFFSET -0.232667 10.192268 -1.242267
					CHANNELS 3 Xrotation Yrotation Zrotation
					JOINT Spine2
					{
						OFFSET -0.232667 10.192268 -1.242267
						CHANNELS 3 Xrotation Yrotation Zrotation
						JOINT Neck_virtual
						{
							OFFSET 0.000000 0.000000 0.000000
							CHANNELS 3 Xrotation Yrotation Zrotation
							JOINT Neck
							{
								OFFSET -0.418800 17.814194 8.416900
								CHANNELS 3 Xrotation Yrotation Zrotation
								JOINT Head
								{
									OFFSET 0.000000 7.031097 3.806800
									CHANNELS 3 Xrotation Yrotation Zrotation
									JOINT HeadTop_End
									{
										OFFSET 0.000000 24.646606 12.978600
										CHANNELS 3 Xrotation Yrotation Zrotation
										End Site
										{
											OFFSET 0 0 0
										}
									}
								}
							}
						}
						JOINT LeftShoulder_virtual
						{
							OFFSET 0.000000 0.000000 0.000000
							CHANNELS 3 Xrotation Yrotation Zrotation
							JOINT LeftShoulder
							{
								OFFSET 8.476499 7.247704 -3.868750
								CHANNELS 3 Xrotation Yrotation Zrotation
								JOINT LeftShoulder_split
								{
									OFFSET 8.476499 7.247704 -3.868750
									CHANNELS 3 Xrotation Yrotation Zrotation
									JOINT LeftArm
									{
										OFFSET 9.308998 -2.777710 0.208600
										CHANNELS 3 Xrotation Yrotation Zrotation
										JOINT LeftForeArm
										{
											OFFSET 29.972298 0.000000 0.000000
											CHANNELS 3 Xrotation Yrotation Zrotation
											JOINT LeftHand
											{
												OFFSET 26.026505 0.000000 0.000000
												CHANNELS 3 Xrotation Yrotation Zrotation
												End Site
												{
													OFFSET 0 0 0
												}
											}
										}
									}
								}
							}
						}
						JOINT RightShoulder_virtual
						{
							OFFSET 0.000000 0.000000 0.000000
							CHANNELS 3 Xrotation Yrotation Zrotation
							JOINT RightShoulder
							{
								OFFSET -7.570500 7.247704 -3.868750
								CHANNELS 3 Xrotation Yrotation Zrotation
								JOINT RightShoulder_split
								{
									OFFSET -7.570500 7.247704 -3.868750
									CHANNELS 3 Xrotation Yrotation Zrotation
									JOINT RightArm
									{
										OFFSET -9.308998 -2.777710 0.208500
										CHANNELS 3 Xrotation Yrotation Zrotation
										JOINT RightForeArm
										{
											OFFSET -29.972300 0.000000 0.000000
											CHANNELS 3 Xrotation Yrotation Zrotation
											JOINT RightHand
											{
												OFFSET -26.026505 0.000000 0.000000
												CHANNELS 3 Xrotation Yrotation Zrotation
												End Site
												{
													OFFSET 0 0 0
												}
											}
										}
									}
								}
							}
						}
					}
				}
			}
		}
	}
}
MOTION
Frames: 7
Frame Time: 0.03333333
1.169414 83.430046 0.022778 0.000000 0.000000 0.000000 4.629306 -4.140873 -0.916338 -42.762824 3.334018 23.152378 63.409489 9.537014 -0.822841 0.530324 6.601344 -12.524967 -18.369567 0.333013 -4.975272 0.000000 0.000000 0.000000 3.742189 -4.210701 -0.855376 -23.540460 -10.182877 4.608870 34.796610 -2.527247 2.514988 -22.564580 -4.396105 -3.318699 6.702240 0.311106 0.761394 0.000000 0.000000 0.000000 4.442717 -5.038405 -0.405350 9.546651 3.653775 6.585338 6.695526 1.255586 0.906570 1.098252 -0.568159 0.092080 0.000000 0.000000 0.000000 7.253582 1.206015 0.855934 1.710147 -1.579738 -1.025870 -1.978859 -3.937273 -0.569954 0.000000 0.000000 0.000000 7.293954 1.239776 0.789211 2.457741 -7.795987 -12.931899 -1.072595 -1.937416 -1.099709 -23.783270 0.584224 -67.465754 -1.109086 -30.863887 -1.271562 0.000000 0.000000 0.000000 7.272349 1.084630 0.812865 3.851071 17.406126 6.725380 0.834233 3.141452 -2.267882 -12.015716 2.841269 67.129353 -0.244527 21.920227 0.117301 0.000000 0.000000 0.000000 
0.938114 83.636726 0.629417 0.000000 0.000000 0.000000 4.711155 -4.075062 -0.923133 -43.417101 4.410319 22.548526 61.538932 9.105798 -0.311115 1.329610 5.533233 -13.420262 -18.405958 0.331320 -4.466211 0.000000 0.000000 0.000000 4.096606 -4.351473 -0.749826 -23.279154 -9.322348 4.615357 35.945759 -2.387906 2.503536 -23.058809 -4.240948 -3.206568 7.055696 0.290287 0.704322 0.000000 0.000000 0.000000 4.932321 -4.726526 -0.260949 9.337713 3.751916 6.740367 6.617152 1.297392 0.912915 0.838034 -0.410622 0.171178 0.000000 0.000000 0.000000 7.250029 1.237656 0.843900 1.940700 -1.628352 -1.175693 -1.926370 -4.141525 -0.505882 0.000000 0.000000 0.000000 7.270166 1.271352 0.779390 2.485648 -7.847945 -13.181469 -0.860992 -1.787249 -1.068809 -23.910286 0.579780 -67.892524 -0.985466 -31.289527 -1.180280 0.000000 0.000000 0.000000 7.259613 1.127821 0.810785 3.771989 17.564277 7.003667 0.694204 3.023406 -2.253981 -11.696498 2.357351 66.810397 -0.218159 21.541978 0.180646 0.000000 0.000000 0.000000 
0.686065 84.050789 1.367950 0.000000 0.000000 0.000000 4.723678 -3.977537 -0.375936 -42.761222 6.533861 20.308304 56.867674 8.595138 0.008595 0.874156 4.042503 -12.988249 -18.409827 -0.050124 -2.624790 0.000000 0.000000 0.000000 4.449961 -4.450260 -0.143363 -23.135321 -7.668733 4.077015 37.257398 -2.397465 2.345424 -23.058389 -3.962585 -2.947323 6.884902 0.284740 0.644661 0.000000 0.000000 0.000000 5.306742 -4.394027 0.324635 9.154240 3.877956 6.730969 6.457015 1.438149 0.878415 0.648010 -0.137160 0.213095 0.000000 0.000000 0.000000 7.151164 1.357862 0.806333 2.192365 -1.628191 -1.603289 -1.790425 -4.356278 -0.741862 0.000000 0.000000 0.000000 7.111558 1.386344 0.763506 2.470727 -7.815922 -13.455321 -0.727541 -1.398557 -1.053751 -23.551015 0.402804 -68.378048 -0.727969 -31.884081 -0.991019 0.000000 0.000000 0.000000 7.147359 1.244955 0.780733 3.671083 17.504745 7.315117 0.642727 2.975011 -2.349236 -11.117689 1.077751 66.238874 -0.166697 21.479191 0.274105 0.000000 0.000000 0.000000 
0.447033 84.535141 2.294094 0.000000 0.000000 0.000000 4.814728 -3.861213 0.642997 -41.447237 8.839046 17.123532 50.744836 8.128225 -0.023901 0.259136 2.522063 -11.711874 -15.058996 -0.334196 -1.433306 0.000000 0.000000 0.000000 4.901341 -4.509869 0.862265 -23.125238 -5.643599 2.992281 38.153126 -2.479262 2.070886 -22.669311 -3.536412 -2.509227 6.545927 0.325992 0.612212 0.000000 0.000000 0.000000 5.503655 -4.072254 1.197101 9.064178 3.974542 6.528695 6.235827 1.618026 0.836942 0.511147 -0.042553 0.219301 0.000000 0.000000 0.000000 6.971352 1.523074 0.773319 2.408407 -1.544576 -2.156346 -1.558558 -4.506515 -1.248348 0.000000 0.000000 0.000000 6.859186 1.531693 0.760517 2.426837 -7.680426 -13.697299 -0.673875 -0.755910 -1.044757 -22.716181 -0.010659 -68.802374 -0.445629 -32.376121 -0.794409 0.000000 0.000000 0.000000 6.939921 1.389898 0.753065 3.584662 17.193169 7.626787 0.546998 2.929480 -2.339494 -10.349557 -0.714519 65.610674 -0.071539 21.704249 0.358588 0.000000 0.000000 0.000000 
0.238046 85.010910 3.414249 0.000000 0.000000 0.000000 5.006685 -3.654626 1.895292 -40.673640 10.641606 13.957545 44.370483 7.670526 -0.483157 1.271480 1.081203 -10.495463 -8.586505 -0.306880 -1.500704 0.000000 0.000000 0.000000 5.452832 -4.545020 2.040482 -23.039637 -3.674501 1.595173 38.381152 -2.661065 1.747401 -22.057476 -2.981798 -2.022591 6.676110 0.417333 0.670400 0.000000 0.000000 0.000000 5.673381 -3.813533 2.126711 9.045313 4.020265 6.154012 6.009992 1.791686 0.812049 0.558728 -0.195848 0.150422 0.000000 0.000000 0.000000 6.726995 1.688269 0.767530 2.523156 -1.428000 -2.665586 -1.226149 -4.561525 -1.909478 0.000000 0.000000 0.000000 6.569355 1.663188 0.777088 2.369556 -7.434577 -13.848716 -0.826044 -0.088323 -1.053938 -21.517905 -0.616384 -69.004233 -0.287733 -32.738340 -0.668856 0.000000 0.000000 0.000000 6.657714 1.545775 0.757221 3.528170 16.695057 7.976132 0.453316 2.997755 -2.285447 -9.579773 -2.837488 65.114085 0.069216 22.102106 0.408925 0.000000 0.000000 0.000000 
-0.018255 85.371552 4.726959 0.000000 0.000000 0.000000 5.307330 -3.510836 3.130307 -39.825214 11.543476 11.100384 37.706189 7.359533 -0.989398 3.657321 0.040970 -9.037062 -3.245210 -0.302067 -1.467169 0.000000 0.000000 0.000000 5.944393 -4.464348 3.179546 -22.778136 -2.195261 0.100773 37.977249 -2.953049 1.499564 -21.356103 -2.442867 -1.439585 7.261732 0.534802 0.828888 0.000000 0.000000 0.000000 5.841962 -3.524602 2.910257 9.063813 4.026776 5.623327 5.804408 1.918354 0.792499 0.704311 -0.527520 0.028090 0.000000 0.000000 0.000000 6.451713 1.829179 0.769088 2.494164 -1.319837 -2.970344 -0.761783 -4.538340 -2.572397 0.000000 0.000000 0.000000 6.303364 1.766118 0.792297 2.310373 -7.124826 -13.885800 -0.928827 0.534882 -1.026286 -20.190393 -1.358600 -68.849270 -0.290817 -33.009461 -0.641632 0.000000 0.000000 0.000000 6.321760 1.700262 0.794284 3.495127 16.080349 8.384013 0.439096 3.160249 -2.266533 -8.905809 -4.976482 64.885855 0.250013 22.534228 0.407353 0.000000 0.000000 0.000000 
-0.314338 85.660622 6.256638 0.000000 0.000000 0.000000 5.643763 -3.351233 4.100656 -38.409470 11.390122 8.435832 30.837980 7.472283 -1.357809 5.525895 -0.190387 -6.876392 -1.016372 -0.322643 -1.098504 0.000000 0.000000 0.000000 6.307944 -4.335471 4.064229 -22.208454 -1.447470 -1.194595 37.091762 -3.386908 1.361326 -20.811409 -2.036663 -0.745804 7.656652 0.625921 1.063768 0.000000 0.000000 0.000000 6.024546 -3.343864 3.390948 9.060441 4.069994 5.035232 5.634324 2.015985 0.767694 0.920174 -0.762078 0.138920 0.000000 0.000000 0.000000 6.174507 1.973837 0.748536 2.244039 -1.247350 -3.021353 -0.180028 -4.553061 -3.014026 0.000000 0.000000 0.000000 6.072987 1.862886 0.779956 2.251272 -6.810224 -13.841109 -0.846504 0.980514 -0.838467 -18.846597 -2.089294 -68.248172 -0.345257 -33.309883 -0.650842 0.000000 0.000000 0.000000 5.950189 1.855467 0.811859 3.459008 15.392386 8.867894 0.404844 3.320020 -2.297244 -8.286441 -6.956607 64.926692 0.442121 22.938255 0.369642 0.000000 0.000000 0.000000 
